<?xml version="1.0" standalone="no"?>
<!DOCTYPE svg PUBLIC "-//W3C//DTD SVG 20010904//EN"
 "http://www.w3.org/TR/2001/REC-SVG-20010904/DTD/svg10.dtd">
<svg version="1.0" xmlns="http://www.w3.org/2000/svg"
 width="700.000000pt" height="700.000000pt" viewBox="0 0 700.000000 700.000000"
 preserveAspectRatio="xMidYMid meet">
<metadata>
Created by potrace 1.14, written by Peter Selinger 2001-2017
</metadata>
<g transform="translate(0.000000,700.000000) scale(0.100000,-0.100000)"
fill="#000000" stroke="none">
<path d="M3278 6995 c-1 -1 -42 -5 -89 -9 -47 -4 -95 -8 -105 -10 -10 -2 -41
-7 -69 -10 -428 -56 -875 -210 -1270 -439 -103 -60 -265 -165 -315 -204 -8 -6
-51 -40 -95 -74 -353 -275 -673 -651 -897 -1054 -49 -87 -148 -289 -148 -301
0 -2 -9 -23 -20 -47 -57 -123 -157 -435 -186 -582 -2 -11 -10 -54 -19 -95 -29
-146 -36 -197 -52 -370 -10 -105 -10 -510 0 -605 9 -87 19 -166 23 -185 1 -8
3 -20 3 -26 1 -7 20 -2 48 11 194 90 429 47 582 -106 156 -157 198 -385 109
-592 -22 -51 -95 -150 -129 -175 -10 -7 -24 -18 -31 -25 -44 -45 -189 -103
-261 -106 -16 -1 -10 -17 39 -108 31 -60 79 -143 105 -186 27 -43 49 -81 49
-83 0 -3 4 -10 10 -17 5 -7 46 -64 91 -126 191 -271 403 -494 692 -727 270
-218 675 -438 1024 -555 109 -37 341 -101 408 -114 146 -26 257 -45 295 -49
282 -32 696 -28 917 8 21 4 54 9 73 11 19 3 46 7 60 10 14 2 39 7 55 10 191
36 411 101 622 184 130 52 418 192 473 231 15 11 33 20 39 20 6 0 11 5 11 10
0 6 5 10 10 10 15 0 220 141 330 227 152 118 324 280 450 422 36 41 70 79 76
85 6 6 48 61 94 121 150 197 277 405 383 628 26 53 47 99 47 102 0 2 11 28 24
57 57 127 151 421 182 573 17 81 54 301 59 350 4 33 9 71 11 85 9 47 11 525 3
605 -15 165 -21 220 -24 225 -2 3 -6 30 -10 60 -9 75 -69 337 -99 435 -174
571 -466 1062 -881 1478 -384 385 -846 672 -1360 845 -168 57 -420 119 -555
137 -19 3 -46 7 -60 10 -13 2 -52 7 -86 11 -33 3 -74 8 -90 10 -32 5 -540 14
-546 9z m1382 -2180 c258 -25 529 -133 747 -296 130 -98 287 -272 366 -407 67
-114 146 -307 161 -392 2 -14 7 -36 10 -50 3 -14 9 -38 12 -55 4 -16 8 -102
10 -190 2 -139 -1 -174 -22 -270 -26 -118 -59 -213 -107 -310 -147 -298 -436
-541 -763 -641 -587 -179 -1250 57 -1606 571 -67 97 -158 277 -158 312 0 46
44 72 205 120 83 24 180 53 217 64 66 20 69 20 104 2 26 -12 46 -35 67 -73
101 -186 311 -353 518 -413 337 -98 677 52 834 368 56 112 77 203 78 325 1
120 -8 173 -46 270 -52 135 -166 275 -288 353 -196 125 -465 151 -694 67 -131
-48 -167 -41 -213 40 -233 410 -229 402 -197 447 27 39 185 101 344 135 78 16
331 39 351 32 3 -1 34 -5 70 -9z m-2171 -10 c35 -3 98 -13 140 -21 464 -96
859 -413 1049 -842 65 -148 58 -155 -226 -232 -150 -41 -233 -59 -251 -55 -36
8 -61 36 -96 105 -82 168 -295 340 -502 408 -129 43 -284 47 -403 11 -200 -59
-370 -212 -458 -409 -25 -57 -36 -90 -59 -185 -2 -11 -6 -58 -7 -105 -6 -182
60 -358 185 -493 163 -177 342 -250 599 -242 136 3 144 5 262 39 44 13 91 21
104 18 27 -5 68 -42 87 -81 21 -39 57 -103 136 -235 113 -190 104 -209 -133
-287 -138 -46 -280 -66 -436 -64 -153 3 -201 8 -315 36 -275 68 -511 201 -705
398 -92 93 -104 108 -176 213 -152 220 -236 493 -235 763 0 77 2 150 5 162 2
11 8 43 11 70 19 132 113 358 204 489 119 172 312 334 497 419 104 48 209 83
295 100 147 29 266 35 428 20z"/>
</g>
</svg>
