<svg width="24" height="24" viewBox="0 0 24 24" fill="currentColor" xmlns="http://www.w3.org/2000/svg">
<path fill-rule="evenodd" clip-rule="evenodd" d="M11.9948 3.07404C14.1283 3.07404 15.521 4.55282 15.8578 6.92584C16.1023 9.8022 14.1283 12 11.9948 12C9.86135 12 7.9649 10.2381 8.13184 6.92584C8.34629 4.53466 9.86135 3.07404 11.9948 3.07404ZM10.7492 5.52611C10.4772 5.79481 10.2055 6.27415 10.1274 7.06662C10.073 8.29993 10.4031 9.02819 10.7302 9.41642C11.0568 9.80407 11.4969 10 11.9948 10C12.6959 10 14.0085 9.0911 13.8693 7.15021C13.7404 6.3068 13.4534 5.79568 13.1759 5.51424C12.9208 5.25549 12.5644 5.07404 11.9948 5.07404C11.4054 5.07404 11.0137 5.26484 10.7492 5.52611ZM17.552 18.487C17.7891 18.4212 17.9327 18.1827 17.8673 17.9455C17.6318 17.0912 17.0951 16.4926 16.3568 16.0369C15.2447 15.3504 13.6487 15 12 15C10.3516 15 8.75556 15.3506 7.64336 16.0372C6.90495 16.4931 6.36832 17.0916 6.13277 17.9456C6.06734 18.1828 6.21093 18.4212 6.44803 18.487C7.49823 18.7784 9.29037 19 12 19C14.7097 19 16.5018 18.7784 17.552 18.487ZM20 19C20 20.1046 17.5645 21 12 21C6.43552 21 4 20.1046 4 19C4 14.5612 8.24721 13 12 13C15.7528 13 20 14.56 20 19Z" />
</svg>
