<svg width="16" height="16" viewBox="0 0 16 16" fill="currentColor" xmlns="http://www.w3.org/2000/svg">
<path fill-rule="evenodd" clip-rule="evenodd" d="M1.2929 14.7072C0.902372 14.3166 0.902372 13.6835 1.2929 13.2929L13.2929 1.29294C13.6834 0.902419 14.3166 0.902419 14.7071 1.29294C15.0976 1.68347 15.0976 2.31663 14.7071 2.70716L2.70711 14.7072C2.31659 15.0977 1.68342 15.0977 1.2929 14.7072Z"/>
<path fill-rule="evenodd" clip-rule="evenodd" d="M1.29289 1.29289C1.68342 0.902369 2.31658 0.902369 2.70711 1.29289L14.7071 13.2929C15.0976 13.6834 15.0976 14.3166 14.7071 14.7071C14.3166 15.0976 13.6834 15.0976 13.2929 14.7071L1.29289 2.70711C0.902369 2.31658 0.902369 1.68342 1.29289 1.29289Z"/>
</svg>
