<svg width="24" height="24" viewBox="0 0 24 24" fill="currentColor" xmlns="http://www.w3.org/2000/svg">
<path fill-rule="evenodd" clip-rule="evenodd" d="M21.7071 2.29291C22.0976 2.68344 22.0976 3.3166 21.7071 3.70713L3.70711 21.7071C3.31658 22.0976 2.68342 22.0976 2.29289 21.7071C1.90237 21.3166 1.90237 20.6834 2.29289 20.2929L20.2929 2.29291C20.6834 1.90239 21.3166 1.90239 21.7071 2.29291Z"/>
<path fill-rule="evenodd" clip-rule="evenodd" d="M2.2929 2.29289C2.68342 1.90237 3.31659 1.90237 3.70711 2.29289L21.7071 20.2929C22.0976 20.6834 22.0976 21.3166 21.7071 21.7071C21.3166 22.0976 20.6834 22.0976 20.2929 21.7071L2.2929 3.70711C1.90237 3.31658 1.90237 2.68342 2.2929 2.29289Z"/>
</svg>
