<svg width="24" height="24" viewBox="0 0 24 24" fill="currentColor" xmlns="http://www.w3.org/2000/svg">
<path d="M20.4828 10.6516L20.3945 10.277H12.2523V13.723H17.1172C16.6121 16.1215 14.2684 17.384 12.3539 17.384C10.9609 17.384 9.49258 16.798 8.5207 15.8563C8.00794 15.3514 7.59979 14.7504 7.31961 14.0876C7.03943 13.4248 6.89272 12.7133 6.88789 11.9937C6.88789 10.5422 7.54023 9.09023 8.48945 8.13516C9.43867 7.18008 10.8723 6.6457 12.2977 6.6457C13.9301 6.6457 15.1 7.5125 15.5375 7.90781L17.9863 5.47187C17.268 4.84062 15.2945 3.25 12.2188 3.25C9.8457 3.25 7.57031 4.15898 5.90703 5.8168C4.26562 7.44922 3.41602 9.80977 3.41602 12C3.41602 14.1902 4.21992 16.4328 5.81055 18.0781C7.51016 19.8328 9.91719 20.75 12.3957 20.75C14.6508 20.75 16.7883 19.8664 18.3117 18.2633C19.8094 16.6852 20.584 14.5016 20.584 12.2125C20.584 11.2488 20.4871 10.6766 20.4828 10.6516Z"/>
</svg>
