<svg width="24" height="24" viewBox="0 0 24 24" fill="currentColor" xmlns="http://www.w3.org/2000/svg">
<path d="M3.86373 12.2109L4.79714 11.2775C5.18766 10.887 5.82083 10.887 6.21135 11.2775C6.60188 11.6681 6.60188 12.3012 6.21135 12.6917L5.27794 13.6252C3.87049 15.0326 3.87049 17.3145 5.27794 18.722C6.68539 20.1294 8.96732 20.1294 10.3748 18.722L11.3082 17.7886C11.6987 17.3981 12.3319 17.3981 12.7224 17.7886C13.1129 18.1791 13.1129 18.8123 12.7224 19.2028L11.789 20.1362C9.60049 22.3247 6.05223 22.3247 3.86373 20.1362C1.67523 17.9477 1.67523 14.3994 3.86373 12.2109Z"/>
<path d="M18.722 10.3748L17.7886 11.3082C17.398 11.6987 17.398 12.3319 17.7886 12.7224C18.1791 13.1129 18.8122 13.1129 19.2028 12.7224L20.1362 11.789C22.3247 9.60049 22.3247 6.05223 20.1362 3.86373C17.9477 1.67523 14.3994 1.67523 12.2109 3.86373L11.2775 4.79715C10.887 5.18768 10.887 5.82084 11.2775 6.21137C11.668 6.60189 12.3012 6.60189 12.6917 6.21137L13.6252 5.27794C15.0326 3.87049 17.3145 3.87049 18.722 5.27794C20.1294 6.68539 20.1294 8.96732 18.722 10.3748Z"/>
<path d="M7.49574 15.0729C7.10522 15.4634 7.10522 16.0966 7.49574 16.4871C7.88627 16.8777 8.51943 16.8777 8.90996 16.4871L16.4669 8.93019C16.8574 8.53966 16.8574 7.9065 16.4669 7.51597C16.0764 7.12545 15.4432 7.12545 15.0527 7.51597L7.49574 15.0729Z"/>
</svg>
