<svg width="24" height="24" viewBox="0 0 24 24" fill="currentColor" xmlns="http://www.w3.org/2000/svg">
<path d="M5 3C3.89543 3 3 3.89543 3 5V19C3 20.1046 3.89543 21 5 21H11C11.5523 21 12 20.5523 12 20C12 19.4477 11.5523 19 11 19H5V5H11C11.5523 5 12 4.55228 12 4C12 3.44772 11.5523 3 11 3H5Z" />
<path d="M16.7071 7.29289C16.3166 6.90237 15.6834 6.90237 15.2929 7.29289C14.9024 7.68342 14.9024 8.31658 15.2929 8.70711L17.7 11H10C9.44772 11 9 11.4477 9 12C9 12.5523 9.44772 13 10 13H17.7L15.2929 15.2929C14.9024 15.6834 14.9024 16.3166 15.2929 16.7071C15.6834 17.0976 16.3166 17.0976 16.7071 16.7071L20.7071 12.7071C21.0976 12.3166 21.0976 11.6834 20.7071 11.2929L16.7071 7.29289Z" />
</svg>
