<svg width="24" height="24" viewBox="0 0 24 24" fill="currentColor" xmlns="http://www.w3.org/2000/svg">
<path d="M12.5709 19.35C16.6302 19.35 19.9209 16.0593 19.9209 12C19.9209 8.27903 17.1559 5.20386 13.5684 4.71712C13.0211 4.64287 12.5709 4.2023 12.5709 3.65001C12.5709 3.09773 13.0202 2.64439 13.5694 2.70269C18.2638 3.20102 21.9209 7.17343 21.9209 12C21.9209 17.1639 17.7348 21.35 12.5709 21.35C7.40706 21.35 3.22092 17.1639 3.22092 12C3.22092 10.0249 3.92466 8.28465 5.03202 6.85133L3.21091 7.24433C2.67106 7.36083 2.13897 7.01764 2.02247 6.47778C1.90596 5.93792 2.24916 5.40584 2.78902 5.28934L7.061 4.36742C7.23368 4.33016 7.40556 4.33993 7.5633 4.38811C7.96307 4.46194 8.29355 4.77694 8.36707 5.20092L9.00281 8.86715C9.09717 9.41132 8.73254 9.92895 8.18837 10.0233C7.64421 10.1177 7.12658 9.75303 7.03222 9.20887L6.71975 7.40689C5.77299 8.75591 5.22092 10.4925 5.22092 12C5.22092 16.0593 8.51163 19.35 12.5709 19.35Z" />
<path d="M13.5 8C13.5 7.44771 13.0523 7 12.5 7C11.9477 7 11.5 7.44772 11.5 8L11.5 12C11.5 12.5523 11.9477 13 12.5 13L16 13C16.5523 13 17 12.5523 17 12C17 11.4477 16.5523 11 16 11L13.5 11L13.5 8Z" />
</svg>
