<svg width="46" height="46" viewBox="0 0 46 46" fill="none" xmlns="http://www.w3.org/2000/svg">
<circle cx="23" cy="23" r="23" fill="#D6E1FF"/>
<path fill-rule="evenodd" clip-rule="evenodd" d="M22.9931 11.0987C25.8377 11.0987 27.6948 13.0704 28.1438 16.2344C28.4698 20.0696 25.8377 23 22.9931 23C20.1485 23 17.6199 20.6508 17.8425 16.2344C18.1284 13.0462 20.1485 11.0987 22.9931 11.0987ZM21.3323 14.3681C20.9696 14.7264 20.6074 15.3655 20.5032 16.4221C20.4308 18.0666 20.8709 19.0376 21.307 19.5552C21.7424 20.0721 22.3292 20.3334 22.9931 20.3334C23.9278 20.3334 25.678 19.1214 25.4924 16.5336C25.3206 15.4091 24.9379 14.7276 24.5679 14.3523C24.2277 14.0073 23.7526 13.7654 22.9931 13.7654C22.2072 13.7654 21.685 14.0198 21.3323 14.3681ZM30.4027 31.6493C30.7188 31.5616 30.9103 31.2436 30.8231 30.9273C30.5091 29.7882 29.7935 28.9902 28.8091 28.3825C27.3263 27.4672 25.1983 27 23.0001 27C20.8021 27 18.6741 27.4674 17.1912 28.383C16.2066 28.9908 15.4911 29.7888 15.1771 30.9274C15.0898 31.2437 15.2813 31.5616 15.5974 31.6493C16.9977 32.0378 19.3872 32.3333 23.0001 32.3333C26.6129 32.3333 29.0024 32.0378 30.4027 31.6493ZM33.6667 32.3333C33.6667 33.8061 30.4194 35 23.0001 35C15.5807 35 12.3334 33.8061 12.3334 32.3333C12.3334 26.4149 17.9963 24.3333 23.0001 24.3333C28.0038 24.3333 33.6667 26.4133 33.6667 32.3333Z" fill="currentColor"/>
</svg>
