<svg width="46" height="46" viewBox="0 0 46 46" fill="none" xmlns="http://www.w3.org/2000/svg">
<g clip-path="url(#clip0_18_336)">
<path fill-rule="evenodd" clip-rule="evenodd" d="M23 46C35.7025 46 46 35.7026 46 23C46 10.2975 35.7025 0 23 0C10.2974 0 0 10.2975 0 23C0 24.1798 0.0888275 25.3388 0.260153 26.4707C0.767913 26.1729 1.35822 26.0023 1.98807 26.0023C3.88784 26.0023 5.4279 27.5542 5.4279 29.4685C5.4279 31.2955 4.02518 32.7923 2.24579 32.9251C5.95098 40.659 13.8518 46 23 46ZM34.3322 25.6743C33.015 27.8022 30.2276 28.6433 27.7298 27.0971C26.7086 26.465 25.9737 25.6913 25.5718 24.8194C25.4328 24.5179 25.1023 24.3316 24.7839 24.426L22.1821 25.1973C21.8599 25.2928 21.6785 25.6364 21.8043 25.948C22.5275 27.7388 23.8346 29.348 25.6434 30.4677C29.9587 33.1389 35.4951 32.0119 38.0092 27.9504C40.5233 23.889 39.0631 18.431 34.7478 15.7597C31.8905 13.9911 28.498 13.8875 25.8018 15.1984C25.5073 15.3417 25.409 15.7054 25.5701 15.9906L26.9903 18.5053C27.1569 18.8004 27.5352 18.8956 27.8448 18.7578C29.117 18.191 31.0701 17.9334 32.7562 18.9771C35.254 20.5233 35.6494 23.5464 34.3322 25.6743ZM11.8251 20.5253C13.2583 18.3233 15.9961 17.6504 18.4581 19.2529C19.4646 19.908 20.1818 20.6982 20.5638 21.579C20.6959 21.8836 21.0221 22.0774 21.3425 21.9902L23.9611 21.2782C24.2854 21.19 24.4746 20.8507 24.3559 20.5363C23.6736 18.7295 22.4034 17.091 20.6205 15.9306C16.367 13.162 10.8064 14.1629 8.20072 18.1663C5.595 22.1696 6.9308 27.6593 11.1843 30.4279C14.0318 32.2813 17.465 32.4454 20.2053 31.1503C20.5067 31.0079 20.606 30.6361 20.4376 30.3485L19.0008 27.8945C18.8279 27.5992 18.4387 27.5065 18.1187 27.6279C16.9465 28.0725 14.8295 28.2857 13.2485 27.2566C10.7865 25.6541 10.3918 22.7273 11.8251 20.5253Z" fill="url(#paint0_linear_18_336)"/>
</g>
<defs>
<linearGradient id="paint0_linear_18_336" x1="-34.3842" y1="0" x2="-34.3842" y2="46" gradientUnits="userSpaceOnUse">
<stop stop-color="#E03D16"/>
<stop offset="1" stop-color="#6954F2"/>
</linearGradient>
<clipPath id="clip0_18_336">
<rect width="46" height="46" fill="white"/>
</clipPath>
</defs>
</svg>
