<svg width="150" height="46" viewBox="0 0 150 46" fill="none" xmlns="http://www.w3.org/2000/svg">
<g clip-path="url(#clip0_16_456)">
<path fill-rule="evenodd" clip-rule="evenodd" d="M126.824 46C139.624 46 150 35.7026 150 23C150 10.2975 139.624 0 126.824 0C114.024 0 103.648 10.2975 103.648 23C103.648 24.1798 103.737 25.3388 103.91 26.4707C104.421 26.1729 105.016 26.0023 105.651 26.0023C107.565 26.0023 109.117 27.5542 109.117 29.4685C109.117 31.2955 107.704 32.7923 105.911 32.9251C109.644 40.659 117.605 46 126.824 46ZM138.243 25.6743C136.916 27.8022 134.107 28.6433 131.59 27.0971C130.561 26.465 129.82 25.6913 129.415 24.8194C129.275 24.5179 128.942 24.3316 128.621 24.426L126 25.1973C125.675 25.2928 125.492 25.6364 125.619 25.948C126.348 27.7388 127.665 29.348 129.487 30.4677C133.836 33.1389 139.415 32.0119 141.948 27.9504C144.481 23.889 143.01 18.431 138.662 15.7597C135.782 13.9911 132.364 13.8875 129.647 15.1984C129.35 15.3417 129.251 15.7054 129.414 15.9906L130.845 18.5053C131.013 18.8004 131.394 18.8956 131.706 18.7578C132.988 18.191 134.956 17.9334 136.655 18.9771C139.172 20.5233 139.57 23.5464 138.243 25.6743ZM115.563 20.5253C117.007 18.3233 119.766 17.6504 122.247 19.2529C123.261 19.908 123.984 20.6982 124.369 21.579C124.502 21.8836 124.831 22.0774 125.154 21.9902L127.792 21.2782C128.119 21.19 128.31 20.8507 128.19 20.5363C127.503 18.7295 126.223 17.091 124.426 15.9306C120.14 13.162 114.537 14.1629 111.911 18.1663C109.285 22.1696 110.631 27.6593 114.918 30.4279C117.787 32.2813 121.246 32.4454 124.008 31.1503C124.311 31.0079 124.411 30.6361 124.242 30.3485L122.794 27.8945C122.62 27.5992 122.228 27.5065 121.905 27.6279C120.724 28.0725 118.591 28.2857 116.998 27.2566C114.517 25.6541 114.119 22.7273 115.563 20.5253Z" fill="url(#paint0_linear_16_456)"/>
<path d="M7.6601 20.7986C5.10956 19.8962 5.12002 19.3088 5.1263 18.9564C5.1266 18.9395 5.1269 18.9231 5.1269 18.9073C5.1269 17.4543 7.00937 17.7311 6.96289 17.7311C8.56747 17.7311 10.2192 18.6192 11.092 19.1917C11.3522 19.3622 11.703 19.332 11.9138 19.104L13.7287 17.1406C13.9476 16.9039 13.9396 16.536 13.6906 16.3307C12.1213 15.0369 9.59588 14.0409 6.80021 14.0409C4.1508 14.0409 0.664729 15.171 0.664729 18.8612C0.664729 21.5879 3.80724 23.017 5.48903 23.7819L5.52198 23.7969C5.98516 24.0082 6.44468 24.1868 6.8779 24.3553C8.33587 24.9221 9.4961 25.3732 9.4961 26.5645C9.4961 27.6485 8.47352 28.1559 7.33474 28.1328C5.5684 28.1328 4.09676 26.9286 3.11447 26.1247L3.09592 26.1096C2.86316 25.9191 2.52589 25.9373 2.31086 26.1473L0.178301 28.2301C-0.0549719 28.4579 -0.0628958 28.8307 0.175486 29.0532C2.15345 30.8999 4.75961 31.8246 7.72983 31.8461C11.0997 31.8461 13.9583 30.0933 13.9583 26.6798C13.9583 23.6585 11.6342 22.2055 7.6601 20.7986Z" fill="url(#paint1_linear_16_456)"/>
<path d="M27.9274 14.868C27.9274 14.5386 28.1965 14.2715 28.5284 14.2715H31.8117C32.1437 14.2715 32.4128 14.5386 32.4128 14.868V30.9729C32.4128 31.3023 32.1437 31.5693 31.8117 31.5693H28.5284C28.1965 31.5693 27.9274 31.3023 27.9274 30.9729V25.3851C27.9274 25.0557 27.6583 24.7886 27.3263 24.7886H21.8119C21.48 24.7886 21.2109 25.0557 21.2109 25.3851V30.9729C21.2109 31.3023 20.9418 31.5693 20.6098 31.5693H17.3265C16.9946 31.5693 16.7255 31.3023 16.7255 30.9729V14.868C16.7255 14.5386 16.9946 14.2715 17.3265 14.2715H20.6098C20.9418 14.2715 21.2109 14.5386 21.2109 14.868V20.5019C21.2109 20.8313 21.48 21.0984 21.8119 21.0984H27.3263C27.6583 21.0984 27.9274 20.8313 27.9274 20.5019V14.868Z" fill="url(#paint2_linear_16_456)"/>
<path d="M64.1511 27.8791C63.8192 27.8791 63.5501 27.6121 63.5501 27.2826V14.868C63.5501 14.5386 63.281 14.2715 62.949 14.2715H59.6657C59.3338 14.2715 59.0647 14.5386 59.0647 14.868V30.9729C59.0647 31.3023 59.3338 31.5693 59.6657 31.5693H69.2937C69.6256 31.5693 69.8947 31.3023 69.8947 30.9729V28.4756C69.8947 28.1462 69.6256 27.8791 69.2937 27.8791H64.1511Z" fill="url(#paint3_linear_16_456)"/>
<path d="M100.009 15.2955C100.396 14.9222 100.129 14.2715 99.59 14.2715H95.5909C95.4378 14.2715 95.2904 14.3295 95.1789 14.4337L90.0441 19.2297C89.6606 19.588 89.0311 19.3181 89.0311 18.7953V14.868C89.0311 14.5386 88.762 14.2715 88.4301 14.2715H85.1468C84.8148 14.2715 84.5457 14.5386 84.5457 14.868V30.9729C84.5457 31.3023 84.8148 31.5693 85.1468 31.5693H88.4301C88.762 31.5693 89.0311 31.3023 89.0311 30.9729V25.2294C89.0311 25.0524 89.1104 24.8845 89.2474 24.7712L89.5311 24.5366C89.7917 24.3211 90.1802 24.3621 90.3892 24.6272L95.6833 31.3405C95.7972 31.4849 95.9718 31.5693 96.1567 31.5693H99.8369C100.338 31.5693 100.619 30.9971 100.31 30.6055L93.6627 22.1658C93.4737 21.9259 93.4972 21.5833 93.7171 21.371L100.009 15.2955Z" fill="url(#paint4_linear_16_456)"/>
<path d="M35.8811 27.881C35.5491 27.881 35.28 28.148 35.28 28.4775V30.9753C35.28 31.3047 35.5491 31.5718 35.8811 31.5718H55.6541C55.986 31.5718 56.2551 31.3047 56.2551 30.9753V28.4775C56.2551 28.148 55.986 27.881 55.6541 27.881H35.8811Z" fill="url(#paint5_linear_16_456)"/>
<path d="M72.7197 28.4756C72.7197 28.1462 72.9888 27.8791 73.3208 27.8791H81.0726C81.4045 27.8791 81.6736 28.1462 81.6736 28.4756V30.9734C81.6736 31.3028 81.4045 31.5699 81.0726 31.5699H73.3208C72.9888 31.5699 72.7197 31.3028 72.7197 30.9734V28.4756Z" fill="url(#paint6_linear_16_456)"/>
</g>
<defs>
<linearGradient id="paint0_linear_16_456" x1="69" y1="0" x2="69" y2="46" gradientUnits="userSpaceOnUse">
<stop stop-color="#E03D16"/>
<stop offset="1" stop-color="#6954F2"/>
</linearGradient>
<linearGradient id="paint1_linear_16_456" x1="69" y1="0" x2="69" y2="46" gradientUnits="userSpaceOnUse">
<stop stop-color="#E03D16"/>
<stop offset="1" stop-color="#6954F2"/>
</linearGradient>
<linearGradient id="paint2_linear_16_456" x1="69" y1="0" x2="69" y2="46" gradientUnits="userSpaceOnUse">
<stop stop-color="#E03D16"/>
<stop offset="1" stop-color="#6954F2"/>
</linearGradient>
<linearGradient id="paint3_linear_16_456" x1="69" y1="0" x2="69" y2="46" gradientUnits="userSpaceOnUse">
<stop stop-color="#E03D16"/>
<stop offset="1" stop-color="#6954F2"/>
</linearGradient>
<linearGradient id="paint4_linear_16_456" x1="69" y1="0" x2="69" y2="46" gradientUnits="userSpaceOnUse">
<stop stop-color="#E03D16"/>
<stop offset="1" stop-color="#6954F2"/>
</linearGradient>
<linearGradient id="paint5_linear_16_456" x1="69" y1="0" x2="69" y2="46" gradientUnits="userSpaceOnUse">
<stop stop-color="#E03D16"/>
<stop offset="1" stop-color="#6954F2"/>
</linearGradient>
<linearGradient id="paint6_linear_16_456" x1="69" y1="0" x2="69" y2="46" gradientUnits="userSpaceOnUse">
<stop stop-color="#E03D16"/>
<stop offset="1" stop-color="#6954F2"/>
</linearGradient>
<clipPath id="clip0_16_456">
<rect width="150" height="46" fill="white"/>
</clipPath>
</defs>
</svg>
